<?xml version="1.0" encoding="utf-8"?>
<!-- Generator: Adobe Illustrator 27.7.0, SVG Export Plug-In . SVG Version: 6.00 Build 0)  -->
<svg version="1.1" id="Layer_1" xmlns="http://www.w3.org/2000/svg" xmlns:xlink="http://www.w3.org/1999/xlink" x="0px" y="0px"
	 viewBox="0 0 768 768" style="enable-background:new 0 0 768 768;" xml:space="preserve">
<style type="text/css">
	.st0{fill:url(#SVGID_1_);}
	.st1{fill:#FFFFFF;}
</style>
<radialGradient id="SVGID_1_" cx="611.6025" cy="647.687" r="695.0581" gradientTransform="matrix(1 0 0 1.0318 0 -24.389)" gradientUnits="userSpaceOnUse">
	<stop  offset="0" style="stop-color:#FFFFFF"/>
	<stop  offset="4.474443e-02" style="stop-color:#D5E0E0"/>
	<stop  offset="9.906924e-02" style="stop-color:#A8C0C0"/>
	<stop  offset="0.1591" style="stop-color:#80A3A2"/>
	<stop  offset="0.2234" style="stop-color:#5D8A88"/>
	<stop  offset="0.2932" style="stop-color:#407573"/>
	<stop  offset="0.3705" style="stop-color:#296362"/>
	<stop  offset="0.4582" style="stop-color:#165654"/>
	<stop  offset="0.5626" style="stop-color:#0A4D4B"/>
	<stop  offset="0.7001" style="stop-color:#024846"/>
	<stop  offset="1" style="stop-color:#004644"/>
</radialGradient>
<path class="st0" d="M0,381.6C0,161.5,180.1,0,384,0s384,161.5,384,381.6C768,591.9,592.6,768,384,768S0,596.8,0,381.6z"/>
<g>
	<circle class="st1" cx="196.1" cy="404" r="34.2"/>
	<path class="st1" d="M246.7,602.2L177.4,561c-1.5-35.7-5.3-35.7,13.6-97.7c-17.9,58.8-35.3,87.9-18.2,122c0,0,26.3-9.1,58.8,19.2
		c35.7,31.1,41,52.3,41,52.3s-16.8-109.4-88.5-263.7L246.7,602.2z"/>
	<g>
		<path class="st1" d="M426.8,80c64.7,35.5,75.1,105.2,119.4,157c14.9,17.4,33.4,31.3,53.8,41.7c-4.9,9.2-9.8,18.6-13.8,28.1
			c-1.7,4.1-3.4,8.6-4.2,12.9c-0.4,2.1-0.4,4.1,0.1,5c0.2,0.5,0.6,0.8,1.2,1.2c3.2,1.6,6.7,1.9,10.1,4.5c10.1,8,4.9,26.8,2.5,37.4
			c-1.2,4.7-2.6,9.3-4.1,13.9l-2.5-4.2c10.3,1.7,18,8,16.5,19.3c-0.9,6.6-3.5,11.9-6,17.6c-0.8,1.8-1.6,3.5-2.1,5.1
			c0,0-0.4-2.7-0.4-2.7c39.3,61.1-37.2,71-80.8,76.8c-11,1.4-23.1,2.7-34.1,4.1c-2.8,0.4-7.9,0.8-10.6,2
			c-23.1,10.3-31.8,55.6-36.2,78.6c-5.3,30-7.8,60.5-8.8,91c-0.3-30.6,1.5-61.2,5.9-91.5c2.3-15.2,5.4-30.3,10.3-44.9
			c5.6-15.8,14.5-36.2,33.1-39.5c27.5-4.2,57.6-6.7,84.4-13.7c19.1-5.1,46.8-15.3,40.5-39.8c-1.7-7.4-5.6-14.4-9.9-21
			c0.8-2.5,1.8-5.1,2.8-7.2c2.7-6.7,9-17.9,3.2-24c-2.7-2.8-8.4-3.9-12.6-4.6c0,0,1.1-3.5,1.1-3.5c2.9-9.5,12.5-37.3,3.9-44.3
			c-2.3-1.8-6.4-2.4-9.4-4.1c-9.4-5.6-2.6-19.4,0.3-27c3.9-8.9,8.4-17.4,12.9-25.8c0,0,1.2,4,1.2,4c-30.1-15.7-54.7-40.6-71.8-69.6
			C493.4,163.5,479.3,111.8,426.8,80L426.8,80z"/>
	</g>
	<g>
		<path class="st1" d="M357.4,338.6c-49.5,4.7-235.7,104.1-125.7-10.9c46.8-49,61.9-91.8,120.3-120.2c68.3-37.2,132.7-28.9,38-37
			c-102.8,40.4-228,173.8-190.2,235.6C214.3,409.4,506.6,300.8,357.4,338.6z"/>
		<path class="st1" d="M559.2,227.5c-54.5-70.5-29.5-142.1-145.6-69.7c87.8,24.3,53.8-43.3,128.4,87.1c0,0-136.6,63.4-214.8,83.1
			c130.2-32.7,56.8,28,155.9-35.5C583.7,227.9,585,276.6,559.2,227.5z"/>
	</g>
</g>
</svg>
